<svg width="320" height="320" viewBox="0 0 320 320" xmlns="http://www.w3.org/2000/svg" shape-rendering="crispEdges"><rect width="100%" height="100%" fill="#d5d7e1" /><rect width="140" height="10" x="90" y="210" fill="#4b4949" /><rect width="140" height="10" x="90" y="220" fill="#4b4949" /><rect width="140" height="10" x="90" y="230" fill="#4b4949" /><rect width="140" height="10" x="90" y="240" fill="#4b4949" /><rect width="20" height="10" x="90" y="250" fill="#4b4949" /><rect width="110" height="10" x="120" y="250" fill="#4b4949" /><rect width="20" height="10" x="90" y="260" fill="#4b4949" /><rect width="110" height="10" x="120" y="260" fill="#4b4949" /><rect width="20" height="10" x="90" y="270" fill="#4b4949" /><rect width="110" height="10" x="120" y="270" fill="#4b4949" /><rect width="20" height="10" x="90" y="280" fill="#4b4949" /><rect width="110" height="10" x="120" y="280" fill="#4b4949" /><rect width="20" height="10" x="90" y="290" fill="#4b4949" /><rect width="110" height="10" x="120" y="290" fill="#4b4949" /><rect width="20" height="10" x="90" y="300" fill="#4b4949" /><rect width="110" height="10" x="120" y="300" fill="#4b4949" /><rect width="20" height="10" x="90" y="310" fill="#4b4949" /><rect width="110" height="10" x="120" y="310" fill="#4b4949" /><rect width="20" height="10" x="110" y="210" fill="#000000" /><rect width="20" height="10" x="150" y="210" fill="#000000" /><rect width="20" height="10" x="190" y="210" fill="#000000" /><rect width="20" height="10" x="110" y="220" fill="#000000" /><rect width="20" height="10" x="150" y="220" fill="#000000" /><rect width="20" height="10" x="190" y="220" fill="#000000" /><rect width="20" height="10" x="90" y="230" fill="#000000" /><rect width="20" height="10" x="130" y="230" fill="#000000" /><rect width="20" height="10" x="170" y="230" fill="#000000" /><rect width="20" height="10" x="210" y="230" fill="#000000" /><rect width="20" height="10" x="90" y="240" fill="#000000" /><rect width="20" height="10" x="130" y="240" fill="#000000" /><rect width="20" height="10" x="170" y="240" fill="#000000" /><rect width="20" height="10" x="210" y="240" fill="#000000" /><rect width="10" height="10" x="120" y="250" fill="#000000" /><rect width="20" height="10" x="150" y="250" fill="#000000" /><rect width="20" height="10" x="190" y="250" fill="#000000" /><rect width="10" height="10" x="120" y="260" fill="#000000" /><rect width="20" height="10" x="150" y="260" fill="#000000" /><rect width="20" height="10" x="190" y="260" fill="#000000" /><rect width="20" height="10" x="90" y="270" fill="#000000" /><rect width="20" height="10" x="130" y="270" fill="#000000" /><rect width="20" height="10" x="170" y="270" fill="#000000" /><rect width="20" height="10" x="210" y="270" fill="#000000" /><rect width="20" height="10" x="90" y="280" fill="#000000" /><rect width="20" height="10" x="130" y="280" fill="#000000" /><rect width="20" height="10" x="170" y="280" fill="#000000" /><rect width="20" height="10" x="210" y="280" fill="#000000" /><rect width="10" height="10" x="120" y="290" fill="#000000" /><rect width="20" height="10" x="150" y="290" fill="#000000" /><rect width="20" height="10" x="190" y="290" fill="#000000" /><rect width="10" height="10" x="120" y="300" fill="#000000" /><rect width="20" height="10" x="150" y="300" fill="#000000" /><rect width="20" height="10" x="190" y="300" fill="#000000" /><rect width="20" height="10" x="90" y="310" fill="#000000" /><rect width="20" height="10" x="130" y="310" fill="#000000" /><rect width="20" height="10" x="170" y="310" fill="#000000" /><rect width="20" height="10" x="210" y="310" fill="#000000" /><rect width="50" height="10" x="130" y="30" fill="#f78a18" /><rect width="10" height="10" x="180" y="30" fill="#c54e38" /><rect width="40" height="10" x="110" y="40" fill="#f78a18" /><rect width="10" height="10" x="150" y="40" fill="#c54e38" /><rect width="20" height="10" x="160" y="40" fill="#f78a18" /><rect width="10" height="10" x="180" y="40" fill="#c54e38" /><rect width="20" height="10" x="190" y="40" fill="#f78a18" /><rect width="20" height="10" x="90" y="50" fill="#f78a18" /><rect width="20" height="10" x="110" y="50" fill="#c54e38" /><rect width="50" height="10" x="130" y="50" fill="#f78a18" /><rect width="10" height="10" x="180" y="50" fill="#c54e38" /><rect width="40" height="10" x="190" y="50" fill="#f78a18" /><rect width="50" height="10" x="80" y="60" fill="#f78a18" /><rect width="10" height="10" x="130" y="60" fill="#c54e38" /><rect width="40" height="10" x="140" y="60" fill="#f78a18" /><rect width="10" height="10" x="180" y="60" fill="#c54e38" /><rect width="40" height="10" x="190" y="60" fill="#f78a18" /><rect width="10" height="10" x="230" y="60" fill="#c54e38" /><rect width="10" height="10" x="80" y="70" fill="#f78a18" /><rect width="10" height="10" x="90" y="70" fill="#c54e38" /><rect width="40" height="10" x="100" y="70" fill="#f78a18" /><rect width="10" height="10" x="140" y="70" fill="#c54e38" /><rect width="30" height="10" x="150" y="70" fill="#f78a18" /><rect width="10" height="10" x="180" y="70" fill="#c54e38" /><rect width="30" height="10" x="190" y="70" fill="#f78a18" /><rect width="10" height="10" x="220" y="70" fill="#c54e38" /><rect width="10" height="10" x="230" y="70" fill="#f78a18" /><rect width="80" height="10" x="70" y="80" fill="#f78a18" /><rect width="10" height="10" x="150" y="80" fill="#c54e38" /><rect width="20" height="10" x="160" y="80" fill="#f78a18" /><rect width="10" height="10" x="180" y="80" fill="#c54e38" /><rect width="20" height="10" x="190" y="80" fill="#f78a18" /><rect width="10" height="10" x="210" y="80" fill="#c54e38" /><rect width="30" height="10" x="220" y="80" fill="#f78a18" /><rect width="10" height="10" x="70" y="90" fill="#f78a18" /><rect width="10" height="10" x="80" y="90" fill="#c54e38" /><rect width="70" height="10" x="90" y="90" fill="#f78a18" /><rect width="50" height="10" x="160" y="90" fill="#c54e38" /><rect width="40" height="10" x="210" y="90" fill="#f78a18" /><rect width="120" height="10" x="60" y="100" fill="#f78a18" /><rect width="10" height="10" x="180" y="100" fill="#c54e38" /><rect width="70" height="10" x="190" y="100" fill="#f78a18" /><rect width="120" height="10" x="60" y="110" fill="#f78a18" /><rect width="10" height="10" x="180" y="110" fill="#c54e38" /><rect width="70" height="10" x="190" y="110" fill="#f78a18" /><rect width="120" height="10" x="60" y="120" fill="#f78a18" /><rect width="10" height="10" x="180" y="120" fill="#c54e38" /><rect width="70" height="10" x="190" y="120" fill="#f78a18" /><rect width="200" height="10" x="60" y="130" fill="#c54e38" /><rect width="120" height="10" x="60" y="140" fill="#f78a18" /><rect width="10" height="10" x="180" y="140" fill="#c54e38" /><rect width="70" height="10" x="190" y="140" fill="#f78a18" /><rect width="120" height="10" x="60" y="150" fill="#f78a18" /><rect width="10" height="10" x="180" y="150" fill="#c54e38" /><rect width="70" height="10" x="190" y="150" fill="#f78a18" /><rect width="110" height="10" x="70" y="160" fill="#f78a18" /><rect width="10" height="10" x="180" y="160" fill="#c54e38" /><rect width="60" height="10" x="190" y="160" fill="#f78a18" /><rect width="90" height="10" x="70" y="170" fill="#f78a18" /><rect width="50" height="10" x="160" y="170" fill="#c54e38" /><rect width="40" height="10" x="210" y="170" fill="#f78a18" /><rect width="40" height="10" x="80" y="180" fill="#f78a18" /><rect width="10" height="10" x="120" y="180" fill="#fdf8ff" /><rect width="10" height="10" x="130" y="180" fill="#1f1d29" /><rect width="10" height="10" x="140" y="180" fill="#fdf8ff" /><rect width="10" height="10" x="150" y="180" fill="#1f1d29" /><rect width="10" height="10" x="160" y="180" fill="#fdf8ff" /><rect width="10" height="10" x="170" y="180" fill="#1f1d29" /><rect width="10" height="10" x="180" y="180" fill="#c54e38" /><rect width="20" height="10" x="190" y="180" fill="#f78a18" /><rect width="10" height="10" x="210" y="180" fill="#c54e38" /><rect width="20" height="10" x="220" y="180" fill="#f78a18" /><rect width="60" height="10" x="80" y="190" fill="#f78a18" /><rect width="10" height="10" x="140" y="190" fill="#c54e38" /><rect width="30" height="10" x="150" y="190" fill="#f78a18" /><rect width="10" height="10" x="180" y="190" fill="#c54e38" /><rect width="30" height="10" x="190" y="190" fill="#f78a18" /><rect width="10" height="10" x="220" y="190" fill="#c54e38" /><rect width="10" height="10" x="230" y="190" fill="#f78a18" /><rect width="40" height="10" x="90" y="200" fill="#f78a18" /><rect width="10" height="10" x="130" y="200" fill="#c54e38" /><rect width="40" height="10" x="140" y="200" fill="#f78a18" /><rect width="10" height="10" x="180" y="200" fill="#c54e38" /><rect width="40" height="10" x="190" y="200" fill="#f78a18" /><rect width="20" height="10" x="110" y="210" fill="#c54e38" /><rect width="50" height="10" x="130" y="210" fill="#f78a18" /><rect width="10" height="10" x="180" y="210" fill="#c54e38" /><rect width="20" height="10" x="190" y="210" fill="#f78a18" /><rect width="50" height="10" x="130" y="220" fill="#f78a18" /><rect width="10" height="10" x="180" y="220" fill="#c54e38" /><rect width="60" height="10" x="100" y="110" fill="#d19a54" /><rect width="60" height="10" x="170" y="110" fill="#d19a54" /><rect width="10" height="10" x="100" y="120" fill="#d19a54" /><rect width="20" height="10" x="110" y="120" fill="#ffffff" /><rect width="20" height="10" x="130" y="120" fill="#000000" /><rect width="10" height="10" x="150" y="120" fill="#d19a54" /><rect width="10" height="10" x="170" y="120" fill="#d19a54" /><rect width="20" height="10" x="180" y="120" fill="#ffffff" /><rect width="20" height="10" x="200" y="120" fill="#000000" /><rect width="10" height="10" x="220" y="120" fill="#d19a54" /><rect width="40" height="10" x="70" y="130" fill="#d19a54" /><rect width="20" height="10" x="110" y="130" fill="#ffffff" /><rect width="20" height="10" x="130" y="130" fill="#000000" /><rect width="30" height="10" x="150" y="130" fill="#d19a54" /><rect width="20" height="10" x="180" y="130" fill="#ffffff" /><rect width="20" height="10" x="200" y="130" fill="#000000" /><rect width="10" height="10" x="220" y="130" fill="#d19a54" /><rect width="10" height="10" x="70" y="140" fill="#d19a54" /><rect width="10" height="10" x="100" y="140" fill="#d19a54" /><rect width="20" height="10" x="110" y="140" fill="#ffffff" /><rect width="20" height="10" x="130" y="140" fill="#000000" /><rect width="10" height="10" x="150" y="140" fill="#d19a54" /><rect width="10" height="10" x="170" y="140" fill="#d19a54" /><rect width="20" height="10" x="180" y="140" fill="#ffffff" /><rect width="20" height="10" x="200" y="140" fill="#000000" /><rect width="10" height="10" x="220" y="140" fill="#d19a54" /><rect width="10" height="10" x="70" y="150" fill="#d19a54" /><rect width="10" height="10" x="100" y="150" fill="#d19a54" /><rect width="20" height="10" x="110" y="150" fill="#ffffff" /><rect width="20" height="10" x="130" y="150" fill="#000000" /><rect width="10" height="10" x="150" y="150" fill="#d19a54" /><rect width="10" height="10" x="170" y="150" fill="#d19a54" /><rect width="20" height="10" x="180" y="150" fill="#ffffff" /><rect width="20" height="10" x="200" y="150" fill="#000000" /><rect width="10" height="10" x="220" y="150" fill="#d19a54" /><rect width="60" height="10" x="100" y="160" fill="#d19a54" /><rect width="60" height="10" x="170" y="160" fill="#d19a54" /></svg>